# xmcd
#
# Track frame offsets:
#	225
#	20658
#	34126
#	49011
#	67687
#	82865
#	105056
#	123418
#	138129
#	160264
#	179336
#	203573
#	221772
#	238331
#	256635
#	279919
#	295660
#	313022
#	334490
#
# Disc length: 4695 seconds
#
# Revision: 1
# Processed by: cddbd v1.5.2PL0 Copyright (c) Steve Scherf et al.
# Submitted via: audiograbber 1.83.01
#
DISCID=03125413
DTITLE=Johnnie Taylor - Eargasm/rated Extraordinaire
DYEAR=1976
DGENRE=R&B
TTITLE0=Disco Lady
TTITLE1=Please Don't Stop (That Song From Playing)
TTITLE2=Don't Touch Her Body (If You Can't Touch Her Mind)
TTITLE3=I'm Gonna Keep On Loving You
TTITLE4=You're The Best In The World
TTITLE5=Running Out Of Lies
TTITLE6=Somebody's Gettin' It
TTITLE7=It Don't Hurt Me Like It Used To
TTITLE8=Pick Up The Pieces
TTITLE9=Your Love Is Rated X
TTITLE10=Stormy
TTITLE11=Here I Go (Through These Changes Again)
TTITLE12=Did He Make Love To You
TTITLE13=And I Panicked
TTITLE14=Love Is Better In The A.M. (Parts 1 and 2)
TTITLE15=It Ain't What You Do (It's How You Do It)
TTITLE16=Not Just Another Booty Song
TTITLE17=I'm Just A Shoulder To Cry On
TTITLE18=Stop Giving People Hard Luck Stories
EXTD=
EXTT0=
EXTT1=
EXTT2=
EXTT3=
EXTT4=
EXTT5=
EXTT6=
EXTT7=
EXTT8=
EXTT9=
EXTT10=
EXTT11=
EXTT12=
EXTT13=
EXTT14=
EXTT15=
EXTT16=
EXTT17=
EXTT18=
PLAYORDER=
